<svg width="102.66mm" height="102.66mm" version="1.1" viewBox="0 0 102.66 102.66" xmlns="http://www.w3.org/2000/svg">
  <g transform="matrix(.35278 0 0 -.35278 81.107 55.925)">
    <path d="m0 0c.068-19.322-16.04-34.954-35.98-34.915l-58.046.122-.248 69.97 58.045-.121c19.94-.039 36.16-15.734 36.229-35.056m-48.429 106.85c16.034-.031 29.076-12.264 29.132-27.323.055-15.06-12.898-27.244-28.932-27.214l-45.846.095-.199 54.536zm36.665-59.504c7.835 8.518 12.649 20.005 12.649 32.655 0 26.258-20.701 47.545-46.237 47.545h-65.728c-5.886 0-10.401-4.626-10.401-10.655v-170.69h88.715c28.402 0 51.427 23.676 51.427 52.881 0 21.509-12.497 40.006-30.425 48.267" style="fill:#fc0"/>
  </g>
  <g transform="matrix(.35278 0 0 -.35278 65.577 39.694)">
    <path d="m0 0c0 22.187-14.866 34.833-43.265 34.833h-33.133l-1.079-69.667h34.212c28.399 0 43.265 12.647 43.265 34.834m22.187 0c0-33.725-24.407-54.137-64.786-54.137h-33.799v-45.671h-26.771v153.94h60.57c40.379 0 64.786-20.412 64.786-54.135" style="fill:#007eff"/>
  </g>
  <g transform="matrix(.35278 0 0 -.35278 36.107 84.7)">
    <path d="m0 0c0 3.38-2.194 5.356-6.541 5.356h-5.794v-10.668h5.794c4.347 0 6.541 1.976 6.541 5.312m7.2 0c0-6.848-5.136-11.106-13.345-11.106h-6.19v-8.473h-7.112v30.73h13.302c8.209 0 13.345-4.259 13.345-11.151" style="fill:#007eff"/>
  </g>
  <g transform="matrix(.35278 0 0 -.35278 47.847 88.38)">
    <path d="m0 0c0 2.59-1.976 3.82-5.664 3.82h-8.296v-7.595h8.296c3.688 0 5.664 1.141 5.664 3.775m-13.96 16.243v-7.243h7.067c3.469 0 5.356 1.228 5.356 3.643s-1.887 3.6-5.356 3.6zm21.115-16.989c0-5.312-4.214-8.385-12.292-8.385h-15.891v30.73h15.013c7.682 0 11.634-3.205 11.634-7.991 0-3.072-1.581-5.442-4.083-6.759 3.424-1.098 5.619-3.732 5.619-7.595" style="fill:#007eff"/>
  </g>
  <g transform="matrix(.35278 0 0 -.35278 57.287 83.15)">
    <path d="m0 0v-6.322c-.571.044-1.009.087-1.537.087-3.775 0-6.276-2.062-6.276-6.584v-11.15h-6.849v23.618h6.541v-3.118c1.668 2.284 4.477 3.469 8.121 3.469" style="fill:#007eff"/>
  </g>
  <g transform="matrix(.35278 0 0 -.35278 63.637 88.97)">
    <path d="m0 0v2.414h-4.697c-3.205 0-4.214-1.185-4.214-2.765 0-1.712 1.448-2.854 3.863-2.854 2.282 0 4.257 1.054 5.048 3.205m6.848 6.014v-13.477h-6.409v2.941c-1.273-2.15-3.731-3.292-7.2-3.292-5.531 0-8.823 3.073-8.823 7.155 0 4.171 2.941 7.069 10.141 7.069h5.443c0 2.941-1.756 4.652-5.443 4.652-2.503 0-5.093-.834-6.805-2.195l-2.459 4.785c2.59 1.844 6.41 2.854 10.185 2.854 7.2 0 11.37-3.337 11.37-10.492" style="fill:#007eff"/>
  </g>
  <path d="m68.237 83.27h2.4162v8.3319h-2.4162z" style="fill:#007eff"/>
  <g transform="matrix(.35278 0 0 -.35278 81.417 86.84)">
    <path d="m0 0v-13.521h-6.848v12.468c0 3.819-1.756 5.575-4.785 5.575-3.292 0-5.662-2.019-5.662-6.365v-11.678h-6.849v23.619h6.541v-2.766c1.844 2.019 4.609 3.117 7.814 3.117 5.575 0 9.789-3.249 9.789-10.449" style="fill:#007eff"/>
  </g>
  <g transform="matrix(.35278 0 0 -.35278 67.937 80.77)">
    <path d="m0 0c0 2.15 1.711 3.818 4.258 3.818 2.546 0 4.259-1.579 4.259-3.687 0-2.283-1.713-3.951-4.259-3.951-2.547 0-4.258 1.668-4.258 3.82" style="fill:#fc0"/>
  </g>
  <g transform="matrix(.35278 0 0 -.35278 29.184 48.49)">
    <path d="m0 0-40.595-94.681 40.595 51.543z" style="fill:#007eff"/>
  </g>
  <g transform="matrix(.35278 0 0 -.35278 50.317 27.406)">
    <path d="m0 0h-34.277l-25.627-59.911v-42.983l25.692 32.861h34.212c28.399 0 43.265 12.647 43.265 34.834s-14.866 35.199-43.265 35.199" style="fill:#fff"/>
  </g>
</svg>
